<svg width="14" height="14" viewBox="0 0 14 14" fill="none" xmlns="http://www.w3.org/2000/svg">
<path d="M4.21941 9.78068C2.78569 8.34417 1.68309 6.61178 0.988747 4.70468C0.606747 3.66202 0.956747 2.51668 1.74208 1.73135L2.22808 1.24602C2.35874 1.11509 2.51393 1.01123 2.68478 0.940356C2.85563 0.869487 3.03878 0.833008 3.22375 0.833008C3.40871 0.833008 3.59186 0.869487 3.76271 0.940356C3.93356 1.01123 4.08876 1.11509 4.21941 1.24602L5.35741 2.38402C5.48834 2.51467 5.5922 2.66987 5.66307 2.84072C5.73394 3.01157 5.77042 3.19472 5.77042 3.37968C5.77042 3.56465 5.73394 3.7478 5.66307 3.91865C5.5922 4.08949 5.48834 4.24469 5.35741 4.37535L5.07741 4.65535C4.96534 4.7674 4.87643 4.90043 4.81577 5.04685C4.75512 5.19327 4.7239 5.3502 4.7239 5.50868C4.7239 5.66717 4.75512 5.8241 4.81577 5.97051C4.87643 6.11693 4.96534 6.24996 5.07741 6.36202L7.63741 8.92268C7.74947 9.03476 7.8825 9.12366 8.02892 9.18432C8.17533 9.24498 8.33226 9.2762 8.49075 9.2762C8.64923 9.2762 8.80616 9.24498 8.95258 9.18432C9.09899 9.12366 9.23203 9.03476 9.34408 8.92268L9.62475 8.64268C9.75541 8.51176 9.9106 8.40789 10.0815 8.33702C10.2523 8.26615 10.4354 8.22967 10.6204 8.22967C10.8054 8.22967 10.9885 8.26615 11.1594 8.33702C11.3302 8.40789 11.4854 8.51176 11.6161 8.64268L12.7541 9.78068C12.885 9.91134 12.9889 10.0665 13.0597 10.2374C13.1306 10.4082 13.1671 10.5914 13.1671 10.7763C13.1671 10.9613 13.1306 11.1445 13.0597 11.3153C12.9889 11.4862 12.885 11.6414 12.7541 11.772L12.2687 12.2573C11.4834 13.0433 10.3381 13.3933 9.29541 13.0113C7.38831 12.317 5.65593 11.2144 4.21941 9.78068Z" stroke="white" stroke-width="1.5" stroke-linejoin="round"/>
</svg>
