<svg width="14" height="16" viewBox="0 0 14 16" fill="none" xmlns="http://www.w3.org/2000/svg">
<path d="M12.1667 7.33331C12.1667 6.37665 12.1654 5.70928 12.0977 5.20571C12.0402 4.77754 11.9412 4.52535 11.7937 4.34568L11.7273 4.27277C11.5431 4.08834 11.2836 3.96812 10.7944 3.90232C10.2908 3.83463 9.62341 3.83331 8.66675 3.83331H6.66675C5.71008 3.83331 5.04271 3.83463 4.53914 3.90232C4.11097 3.95991 3.85878 4.05883 3.67912 4.20636L3.6062 4.27277C3.42177 4.45699 3.30156 4.71646 3.23576 5.20571C3.16806 5.70928 3.16675 6.37665 3.16675 7.33331V10.6666C3.16675 11.6233 3.16806 12.2907 3.23576 12.7943C3.30156 13.2835 3.42177 13.543 3.6062 13.7272L3.67912 13.7936C3.85878 13.9411 4.11097 14.0401 4.53914 14.0976C5.04271 14.1653 5.71008 14.1666 6.66675 14.1666H8.66675C9.62341 14.1666 10.2908 14.1653 10.7944 14.0976C11.2836 14.0318 11.5431 13.9116 11.7273 13.7272L11.7937 13.6543C11.9412 13.4746 12.0402 13.2224 12.0977 12.7943C12.1654 12.2907 12.1667 11.6233 12.1667 10.6666V7.33331ZM13.1667 10.6666C13.1667 11.5951 13.168 12.342 13.0893 12.9277C13.0136 13.4903 12.8568 13.9698 12.5066 14.3581L12.4343 14.4342C12.0332 14.8357 11.5278 15.0085 10.9278 15.0892C10.3421 15.1679 9.59522 15.1666 8.66675 15.1666H6.66675C5.73828 15.1666 4.9914 15.1679 4.40568 15.0892C3.84305 15.0135 3.3636 14.8567 2.97534 14.5065L2.89917 14.4342C2.49774 14.0331 2.32491 13.5277 2.24422 12.9277C2.16546 12.342 2.16675 11.5951 2.16675 10.6666V7.33331C2.16675 6.40484 2.16546 5.65797 2.24422 5.07225C2.32491 4.47227 2.49774 3.96682 2.89917 3.56574L2.97534 3.49347C3.3636 3.14324 3.84305 2.98645 4.40568 2.91079C4.9914 2.83203 5.73828 2.83331 6.66675 2.83331H8.66675C9.59522 2.83331 10.3421 2.83203 10.9278 2.91079C11.5278 2.99148 12.0332 3.16431 12.4343 3.56574L12.5066 3.64191C12.8568 4.03016 13.0136 4.50961 13.0893 5.07225C13.168 5.65797 13.1667 6.40484 13.1667 7.33331V10.6666Z" fill="#5C5C5C"/>
<path d="M0.166748 10.6666V6.66665C0.166748 5.42379 0.165771 4.44105 0.268962 3.67381C0.374087 2.89236 0.595457 2.25973 1.09448 1.76105C1.59344 1.26252 2.22634 1.04074 3.00789 0.935527C3.77503 0.832284 4.7573 0.833313 6.00008 0.833313H8.66675C9.32979 0.833313 9.96549 1.09689 10.4343 1.56574C10.9032 2.03458 11.1667 2.67027 11.1667 3.33331H10.1667C10.1667 2.93549 10.0086 2.55407 9.7273 2.27277C9.44599 1.99146 9.06457 1.83331 8.66675 1.83331H6.00008C4.72919 1.83331 3.82632 1.83488 3.14136 1.92706C2.47086 2.01733 2.08388 2.18603 1.80151 2.46808C1.51936 2.75 1.35006 3.13656 1.25985 3.80727C1.16771 4.49236 1.16675 5.39551 1.16675 6.66665V10.6666C1.16675 11.0645 1.3249 11.4459 1.6062 11.7272C1.88751 12.0085 2.26892 12.1666 2.66675 12.1666V13.1666C2.00371 13.1666 1.36801 12.9031 0.89917 12.4342C0.430329 11.9654 0.166748 11.3297 0.166748 10.6666Z" fill="#5C5C5C"/>
</svg>
